<svg width="23" height="23" viewBox="0 0 23 23" fill="none" xmlns="http://www.w3.org/2000/svg">
<g filter="url(#filter0_d_2_1186)">
<path d="M18.831 12.54C19.312 13.409 18.708 14.495 17.748 14.495H5.25099C4.28999 14.495 3.68902 13.407 4.16902 12.54L10.417 1.24397C10.898 0.373974 12.103 0.375974 12.583 1.24397L18.831 12.54ZM11.5 10.205C10.838 10.205 10.302 10.764 10.302 11.454C10.302 12.143 10.838 12.703 11.5 12.703C12.162 12.703 12.698 12.143 12.698 11.454C12.698 10.764 12.162 10.205 11.5 10.205ZM10.363 5.71498L10.556 9.40798C10.565 9.57998 10.702 9.71599 10.868 9.71599H12.132C12.298 9.71599 12.435 9.57998 12.444 9.40798L12.637 5.71498C12.647 5.52798 12.505 5.37099 12.325 5.37099H10.675C10.495 5.37099 10.353 5.52798 10.363 5.71498Z" fill="#EE144E"/>
</g>
<defs>
<filter id="filter0_d_2_1186" x="0.000244141" y="0.592224" width="22.9998" height="21.9028" filterUnits="userSpaceOnUse" color-interpolation-filters="sRGB">
<feFlood flood-opacity="0" result="BackgroundImageFix"/>
<feColorMatrix in="SourceAlpha" type="matrix" values="0 0 0 0 0 0 0 0 0 0 0 0 0 0 0 0 0 0 127 0" result="hardAlpha"/>
<feOffset dy="4"/>
<feGaussianBlur stdDeviation="2"/>
<feComposite in2="hardAlpha" operator="out"/>
<feColorMatrix type="matrix" values="0 0 0 0 0 0 0 0 0 0 0 0 0 0 0 0 0 0 0.25 0"/>
<feBlend mode="normal" in2="BackgroundImageFix" result="effect1_dropShadow_2_1186"/>
<feBlend mode="normal" in="SourceGraphic" in2="effect1_dropShadow_2_1186" result="shape"/>
</filter>
</defs>
</svg>
